<svg xmlns="http://www.w3.org/2000/svg" width="20" height="20" fill="none" viewBox="0 0 20 20">
  <path fill="#000" d="M10.001 0C4.475-.002 0 4.471 0 9.992c0 4.366 2.8 8.078 6.699 9.44.525.132.444-.24.444-.496v-1.731c-3.032.355-3.155-1.651-3.358-1.987-.411-.701-1.383-.88-1.093-1.215.69-.355 1.395.09 2.21 1.294.59.873 1.74.726 2.324.58.127-.525.4-.994.775-1.358-3.141-.563-4.45-2.48-4.45-4.76 0-1.105.364-2.122 1.079-2.942-.456-1.352.042-2.51.11-2.681 1.297-.116 2.647.93 2.752 1.012.737-.199 1.58-.304 2.522-.304.948 0 1.793.11 2.537.31.252-.191 1.503-1.09 2.71-.98.065.172.552 1.302.123 2.636.724.823 1.092 1.848 1.092 2.957 0 2.283-1.318 4.202-4.468 4.757a2.85 2.85 0 01.85 2.033v2.514c.019.2 0 .4.336.4C17.151 18.137 20 14.398 20 9.994 20 4.471 15.522 0 10.001 0z"/>
</svg>
