<svg xmlns="http://www.w3.org/2000/svg" width="20" height="17" fill="none" viewBox="0 0 20 17">
  <path fill="#18A0FB" d="M20 1.929a8.217 8.217 0 01-2.356.645 4.114 4.114 0 001.804-2.27 8.192 8.192 0 01-2.606.995A4.104 4.104 0 009.85 5.042 11.652 11.652 0 011.393.754a4.105 4.105 0 001.27 5.479A4.093 4.093 0 01.804 5.72v.053a4.105 4.105 0 003.292 4.023 4.133 4.133 0 01-1.853.07 4.105 4.105 0 003.833 2.85 8.234 8.234 0 01-5.097 1.756A8.35 8.35 0 010 14.415a11.604 11.604 0 006.29 1.844c7.548 0 11.674-6.252 11.674-11.675 0-.176-.004-.354-.012-.53a8.341 8.341 0 002.046-2.123L20 1.93z"/>
</svg>
